<?xml version="1.0" encoding="UTF-8"?><svg id="Capa_2" xmlns="http://www.w3.org/2000/svg" viewBox="0 0 320.5 336.61"><defs><style>.cls-1,.cls-2{fill:#fff;}.cls-3{fill:none;stroke-width:5px;}.cls-3,.cls-2{stroke:#fff;stroke-miterlimit:10;}.cls-2{stroke-width:.9px;}.cls-4{fill:#010101;}</style></defs><g id="Capa_1-2"><g><path class="cls-4" d="M296.89,126.81c10.71-17.74-10.79-43.46-30.68-30.69-.16,.1-.32,.21-.48,.31,1.13-1.07,2.21-2.18,3.34-3.25,18.38-17.4-5.42-48.66-27.15-35.19-13.61,8.44-27.05,17.17-40.39,26.02,11-10.67,22.12-21.23,33.47-31.53,19.41-17.61-5.32-46.83-27.15-35.19-5.21,2.78-10.28,5.8-15.41,8.73,3.27-16.53-14.93-32.1-33.29-23.65C109.74,25.12,64.38,55.42,23.87,91.7c-17.56,15.73,.35,39.63,19.18,37.49-13.54,16.23-26.7,32.77-39.18,49.86-12.64,17.31,8.29,37.18,25.63,32.74-3.92,5.19-7.88,10.35-11.72,15.59-6.52,8.89-2.36,22.82,5.77,28.9,9.24,6.9,20.86,5.85,29.42-1.75,2.42-2.15,4.89-4.24,7.33-6.37-4.03,4.72-8.19,9.33-12.19,14.09-7.78,9.26-9.08,22.61,0,31.68,7.26,7.26,19.26,8.48,27.82,3.09,1.15,5.54,4.24,10.77,8.45,13.92,8.65,6.46,18.07,5.57,26.47,.28-.66,16.37,17.62,33.26,33.25,21.42,9.19-6.97,18.39-13.94,27.59-20.91,6.17,11.71,22.27,18.2,35.35,6.33,20.42-18.52,42.16-35.09,65.39-49.92,11.89-7.59,12.51-20.78,7.2-30.42l22.56-24.96c7.45-8.25,8.89-20.45,1.75-29.42-1.34-1.69-3.07-3.18-4.97-4.5,4.95-4.58,9.91-9.15,14.86-13.73,15.72-14.52,1.02-38.97-16.94-38.32Z"/><g><path class="cls-3" d="M65.51,139.45s-4.7-3.39,.94-7.92l13.15-11.76s3.76-3.96,7.74-.51l121.38,91.9v44.07s-.06,6.92-8.94,6.16L65.51,139.45Z"/><path class="cls-2" d="M96.79,167.85l-31.29,28.44s-3.21,2.39,0,6.66l14.53,13.21s3.45,3.7,8.55-.51l33.17-25.15-24.95-22.66Z"/><path class="cls-2" d="M151.72,168.09l57.38-43.81-.37-43.83s-2.45-9.57-10.62-4.59l-76.35,69.49,29.97,22.74Z"/><path class="cls-1" d="M199.78,261.43c3.33,3.41,7.37,2.29,7.37,2.29l44.71-22.03c5.72-3.9,4.92-8.74,4.92-8.74V101.38c0-5.78-5.92-7.78-5.92-7.78l-38.75-18.68c-8.47-5.23-14.02,.94-14.02,.94,0,0,7.14-5.14,10.62,4.59V254.41c0,1.2-.25,2.37-.76,3.43-1.02,2.06-3.23,3.98-8.55,3.18l.37,.41Z"/></g></g></g></svg>