<?xml version="1.0" encoding="UTF-8"?><svg id="Capa_2" xmlns="http://www.w3.org/2000/svg" viewBox="0 0 320.5 336.61"><defs><style>.cls-1{fill:#fff;}.cls-2{fill:#010101;}</style></defs><g id="Capa_1-2"><g><path class="cls-2" d="M296.89,126.81c10.71-17.74-10.79-43.46-30.68-30.69-.16,.1-.32,.21-.48,.31,1.13-1.07,2.21-2.18,3.34-3.25,18.38-17.4-5.42-48.66-27.15-35.19-13.61,8.44-27.05,17.17-40.39,26.02,11-10.67,22.12-21.23,33.47-31.53,19.41-17.61-5.32-46.83-27.15-35.19-5.21,2.78-10.28,5.8-15.41,8.73,3.27-16.53-14.93-32.1-33.29-23.65C109.74,25.12,64.38,55.42,23.87,91.7c-17.56,15.73,.35,39.63,19.18,37.49-13.54,16.23-26.7,32.77-39.18,49.86-12.64,17.31,8.29,37.18,25.63,32.74-3.92,5.19-7.88,10.35-11.72,15.59-6.52,8.89-2.36,22.82,5.77,28.9,9.24,6.9,20.86,5.85,29.42-1.75,2.42-2.15,4.89-4.24,7.33-6.37-4.03,4.72-8.19,9.33-12.19,14.09-7.78,9.26-9.08,22.61,0,31.68,7.26,7.26,19.26,8.48,27.82,3.09,1.15,5.54,4.24,10.77,8.45,13.92,8.65,6.46,18.07,5.57,26.47,.28-.66,16.37,17.62,33.26,33.25,21.42,9.19-6.97,18.39-13.94,27.59-20.91,6.17,11.71,22.27,18.2,35.35,6.33,20.42-18.52,42.16-35.09,65.39-49.92,11.89-7.59,12.51-20.78,7.2-30.42l22.56-24.96c7.45-8.25,8.89-20.45,1.75-29.42-1.34-1.69-3.07-3.18-4.97-4.5,4.95-4.58,9.91-9.15,14.86-13.73,15.72-14.52,1.02-38.97-16.94-38.32Z"/><path class="cls-1" d="M85.98,189.9c-3.14,0-6.27,0-9.41-.12-3.02-.12-5.91-.24-8.57-.6v75.17H32.65V72.26h55.5c9.29,0,17.5,.36,24.37,1.21,7,.72,13.15,1.93,18.58,3.62,13.15,3.98,23.29,10.38,30.41,19.3,7.12,8.69,10.62,19.91,10.62,33.54,0,9.29-1.93,17.62-5.67,24.98-3.86,7.48-9.53,13.75-16.89,18.94-7.36,5.19-16.29,9.17-27.03,11.94-10.62,2.78-22.8,4.1-36.56,4.1h0Zm-17.98-30.28c1.93,.24,4.58,.48,7.6,.72,3.14,.12,6.39,.12,9.77,.12,9.41,0,17.37-.72,23.77-2.29,6.39-1.45,11.58-3.62,15.44-6.39,3.98-2.65,6.76-6.03,8.45-9.89,1.81-3.86,2.65-8.08,2.65-12.67,0-5.67-1.33-10.5-3.86-14.72-2.65-4.1-7.12-7.24-13.51-9.53-3.38-1.21-7.48-2.05-12.43-2.53-4.95-.6-10.98-.84-18.1-.84h-19.79v58.04Zm219.84-7.36h-2.78c-10.5,0-19.67,1.57-27.51,4.71-7.96,3.02-14.12,7.72-18.34,14.12v93.27h-34.15V125.23h28.23l3.14,19.31h.6c3.98-7.12,9.53-12.67,16.53-16.77,7.12-4.1,15.56-6.15,25.46-6.15,3.38,0,6.39,.24,8.81,.6v30.04Z"/></g></g></svg>