<?xml version="1.0" encoding="utf-8"?>
<!-- Generator: Adobe Illustrator 26.3.1, SVG Export Plug-In . SVG Version: 6.00 Build 0)  -->
<svg version="1.1" id="Capa_2_00000018952932998762385420000004838482719139344015_"
	 xmlns="http://www.w3.org/2000/svg" xmlns:xlink="http://www.w3.org/1999/xlink" x="0px" y="0px" viewBox="0 0 320.5 336.6"
	 style="enable-background:new 0 0 320.5 336.6;" xml:space="preserve">
<style type="text/css">
	.st0{fill:#010101;}
	.st1{fill:#FFFFFF;}
</style>
<g id="Capa_1-2">
	<g>
		<path class="st0" d="M296.9,126.8c10.7-17.7-10.8-43.5-30.7-30.7c-0.2,0.1-0.3,0.2-0.5,0.3c1.1-1.1,2.2-2.2,3.3-3.2
			c18.4-17.4-5.4-48.7-27.1-35.2c-13.6,8.4-27.1,17.2-40.4,26c11-10.7,22.1-21.2,33.5-31.5c19.4-17.6-5.3-46.8-27.1-35.2
			c-5.2,2.8-10.3,5.8-15.4,8.7c3.3-16.5-14.9-32.1-33.3-23.6c-49.4,22.8-94.8,53-135.3,89.3c-17.6,15.7,0.4,39.6,19.2,37.5
			C29.5,145.4,16.4,162,3.9,179.1c-12.6,17.3,8.3,37.2,25.6,32.7c-3.9,5.2-7.9,10.4-11.7,15.6c-6.5,8.9-2.4,22.8,5.8,28.9
			c9.2,6.9,20.9,5.9,29.4-1.8c2.4-2.1,4.9-4.2,7.3-6.4c-4,4.7-8.2,9.3-12.2,14.1c-7.8,9.3-9.1,22.6,0,31.7
			c7.3,7.3,19.3,8.5,27.8,3.1c1.2,5.5,4.2,10.8,8.4,13.9c8.7,6.5,18.1,5.6,26.5,0.3c-0.7,16.4,17.6,33.3,33.2,21.4
			c9.2-7,18.4-13.9,27.6-20.9c6.2,11.7,22.3,18.2,35.4,6.3c20.4-18.5,42.2-35.1,65.4-49.9c11.9-7.6,12.5-20.8,7.2-30.4l22.6-25
			c7.5-8.2,8.9-20.4,1.8-29.4c-1.3-1.7-3.1-3.2-5-4.5c5-4.6,9.9-9.1,14.9-13.7C329.5,150.6,314.8,126.1,296.9,126.8L296.9,126.8z"/>
	</g>
</g>
<g>
	<g>
		<path class="st1" d="M254.2,126.3l-81.7-50.9c-7.5-4.7-17-4.7-24.5,0l-81.7,50.9c-6.2,3.9-10,10.6-10,17.8v99.5
			c0,11.6,9.7,21.1,21.6,21.1h164.5c12,0,21.6-9.4,21.6-21.1v-99.5C264.1,136.9,260.4,130.2,254.2,126.3z M133.6,210.4l-50.6,39.3
			c-1.3,1-2.8,1.5-4.3,1.5c-2.1,0-4.2-0.9-5.6-2.7c-2.4-3.1-1.8-7.5,1.2-9.9l50.6-39.3c3.1-2.4,7.5-1.8,9.9,1.2
			C137.3,203.6,136.7,208,133.6,210.4z M153.6,193.9l-64.1-45.4c-7.1-5-3.4-16,5.3-16h130.9c8.8,0,12.4,10.9,5.3,16l-64.1,45.4
			C162.9,196.7,157.6,196.7,153.6,193.9z M247.3,248.5c-1.4,1.8-3.5,2.7-5.6,2.7c-1.5,0-3-0.5-4.3-1.5l-50.6-39.3
			c-3.1-2.4-3.6-6.8-1.2-9.9c2.4-3.1,6.8-3.6,9.9-1.2l50.6,39.3C249.1,241,249.7,245.4,247.3,248.5z"/>
		<path class="st1" d="M185.5,145.8h-45c-4.7,0-8.4,3.8-8.4,8.4c0,4.7,3.8,8.4,8.4,8.4h45c4.7,0,8.4-3.8,8.4-8.4
			C194,149.6,190.2,145.8,185.5,145.8z"/>
	</g>
</g>
</svg>
