<?xml version="1.0" encoding="utf-8"?>
<!-- Generator: Adobe Illustrator 26.3.1, SVG Export Plug-In . SVG Version: 6.00 Build 0)  -->
<svg version="1.1" id="Capa_2_00000018952932998762385420000004838482719139344015_"
	 xmlns="http://www.w3.org/2000/svg" xmlns:xlink="http://www.w3.org/1999/xlink" x="0px" y="0px" viewBox="0 0 320.5 336.6"
	 style="enable-background:new 0 0 320.5 336.6;" xml:space="preserve">
<style type="text/css">
	.st0{fill:#010101;}
	.st1{fill:#FFFFFF;}
</style>
<g id="Capa_1-2">
	<g>
		<path class="st0" d="M296.9,126.8c10.7-17.7-10.8-43.5-30.7-30.7c-0.2,0.1-0.3,0.2-0.5,0.3c1.1-1.1,2.2-2.2,3.3-3.2
			c18.4-17.4-5.4-48.7-27.1-35.2c-13.6,8.4-27.1,17.2-40.4,26c11-10.7,22.1-21.2,33.5-31.5c19.4-17.6-5.3-46.8-27.1-35.2
			c-5.2,2.8-10.3,5.8-15.4,8.7c3.3-16.5-14.9-32.1-33.3-23.6c-49.4,22.8-94.8,53-135.3,89.3c-17.6,15.7,0.4,39.6,19.2,37.5
			C29.5,145.4,16.4,162,3.9,179.1c-12.6,17.3,8.3,37.2,25.6,32.7c-3.9,5.2-7.9,10.4-11.7,15.6c-6.5,8.9-2.4,22.8,5.8,28.9
			c9.2,6.9,20.9,5.9,29.4-1.8c2.4-2.1,4.9-4.2,7.3-6.4c-4,4.7-8.2,9.3-12.2,14.1c-7.8,9.3-9.1,22.6,0,31.7
			c7.3,7.3,19.3,8.5,27.8,3.1c1.2,5.5,4.2,10.8,8.4,13.9c8.7,6.5,18.1,5.6,26.5,0.3c-0.7,16.4,17.6,33.3,33.2,21.4
			c9.2-7,18.4-13.9,27.6-20.9c6.2,11.7,22.3,18.2,35.4,6.3c20.4-18.5,42.2-35.1,65.4-49.9c11.9-7.6,12.5-20.8,7.2-30.4l22.6-25
			c7.5-8.2,8.9-20.4,1.8-29.4c-1.3-1.7-3.1-3.2-5-4.5c5-4.6,9.9-9.1,14.9-13.7C329.5,150.6,314.8,126.1,296.9,126.8L296.9,126.8z"/>
	</g>
</g>
<g>
	<path class="st1" d="M248.9,212.3l-25.3-13.6c-6.2-3.3-11-0.9-16.3,6.4c-11.7,16-17.3,19.2-31.6,11.2
		c-13.3-7.4-22.9-16.3-34.9-28.3c-12-12-20.8-21.5-28.3-34.9c-8-14.3-4.8-19.9,11.2-31.6c7.3-5.3,9.7-10.1,6.4-16.3l-13.6-25.3
		c-5.6-10.8-13.5-12-25.2-8c-16.1,5.5-31.7,28.7-30.9,39.8c2.3,32.3,18.5,71.1,52.1,104.7c33.6,33.6,72.4,49.8,104.7,52.1
		c11.1,0.8,34.2-15,39.6-31.1C260.9,225.8,259.7,217.9,248.9,212.3z"/>
	<path class="st1" d="M173.2,114.8c-5.3,0-9.6,4.4-9.6,9.7c0,5.3,4.4,9.6,9.7,9.6c0.1,0,0.2,0,0.3,0c5.7,0,11.1,2.2,15.2,6.3
		c4.1,4.1,6.3,9.5,6.3,15.4c0,5.3,4.2,9.7,9.6,9.7h0.1c5.3,0,9.6-4.3,9.7-9.6c0.1-11-4.1-21.4-11.9-29.2
		C194.6,119,184.1,114.9,173.2,114.8z M230.8,98.3c-15.4-15.4-36.1-23.8-57.6-23.7c-5.3,0-9.6,4.4-9.6,9.7c0,5.3,4.3,9.6,9.7,9.6
		c0.1,0,0.2,0,0.3,0c16.5,0,32,6.4,43.7,18.1c11.7,11.7,18.1,27.3,18.1,43.9c0,5.3,4.3,9.7,9.6,9.7h0c5.3,0,9.6-4.3,9.7-9.6
		C254.7,134.1,246.2,113.6,230.8,98.3z"/>
</g>
</svg>
