<?xml version="1.0" encoding="utf-8"?>
<!-- Generator: Adobe Illustrator 26.3.1, SVG Export Plug-In . SVG Version: 6.00 Build 0)  -->
<svg version="1.1" id="Capa_2_00000018952932998762385420000004838482719139344015_"
	 xmlns="http://www.w3.org/2000/svg" xmlns:xlink="http://www.w3.org/1999/xlink" x="0px" y="0px" viewBox="0 0 320.5 336.6"
	 style="enable-background:new 0 0 320.5 336.6;" xml:space="preserve">
<style type="text/css">
	.st0{fill:#010101;}
	.st1{fill:#FFFFFF;}
</style>
<g id="Capa_1-2">
	<g>
		<path class="st0" d="M296.9,126.8c10.7-17.7-10.8-43.5-30.7-30.7c-0.2,0.1-0.3,0.2-0.5,0.3c1.1-1.1,2.2-2.2,3.3-3.2
			c18.4-17.4-5.4-48.7-27.1-35.2c-13.6,8.4-27.1,17.2-40.4,26c11-10.7,22.1-21.2,33.5-31.5c19.4-17.6-5.3-46.8-27.1-35.2
			c-5.2,2.8-10.3,5.8-15.4,8.7c3.3-16.5-14.9-32.1-33.3-23.6c-49.4,22.8-94.8,53-135.3,89.3c-17.6,15.7,0.4,39.6,19.2,37.5
			C29.5,145.4,16.4,162,3.9,179.1c-12.6,17.3,8.3,37.2,25.6,32.7c-3.9,5.2-7.9,10.4-11.7,15.6c-6.5,8.9-2.4,22.8,5.8,28.9
			c9.2,6.9,20.9,5.9,29.4-1.8c2.4-2.1,4.9-4.2,7.3-6.4c-4,4.7-8.2,9.3-12.2,14.1c-7.8,9.3-9.1,22.6,0,31.7
			c7.3,7.3,19.3,8.5,27.8,3.1c1.2,5.5,4.2,10.8,8.4,13.9c8.7,6.5,18.1,5.6,26.5,0.3c-0.7,16.4,17.6,33.3,33.2,21.4
			c9.2-7,18.4-13.9,27.6-20.9c6.2,11.7,22.3,18.2,35.4,6.3c20.4-18.5,42.2-35.1,65.4-49.9c11.9-7.6,12.5-20.8,7.2-30.4l22.6-25
			c7.5-8.2,8.9-20.4,1.8-29.4c-1.3-1.7-3.1-3.2-5-4.5c5-4.6,9.9-9.1,14.9-13.7C329.5,150.6,314.8,126.1,296.9,126.8L296.9,126.8z"/>
		<path class="st1" d="M261.5,118.9c-4-9.7-9.8-18.2-17.4-25.5c-7.6-7.3-16.9-13-27.8-17.2C205.5,72.1,193,70,179,70
			c-18.2,0-34.2,2.3-48,6.9c-13.8,4.6-25.6,10.7-35.4,18.4c-9.9,7.7-17.9,16.3-24,25.8c-6.2,9.6-10.7,19.4-13.7,29.6
			c-2.9,10.2-4.4,20-4.4,29.5c0,14.4,2.3,27.1,7,38c4.7,10.9,11.1,20,19.4,27.2c8.3,7.2,17.9,12.6,28.8,16.1
			c10.9,3.5,22.5,5.3,34.9,5.3c6.8,0,13.9-0.7,21.3-2.1c7.4-1.4,14.7-3.6,21.9-6.5c7.1-2.9,13.7-6.7,19.5-11.2l-9.5-13.5
			c-7.4,4.7-15.3,8.4-23.8,11.2c-8.5,2.8-17.2,4.2-26.1,4.2c-10.2,0-19.7-1.4-28.6-4.2c-8.8-2.8-16.5-7-23-12.6
			c-6.5-5.6-11.7-12.8-15.3-21.6c-3.7-8.7-5.5-19.1-5.5-31.1c0-5.7,1-12.4,2.9-20.2c2-7.7,5.2-15.7,9.7-23.9
			c4.5-8.2,10.6-15.9,18.3-23c7.7-7.1,17.3-12.9,28.8-17.3c11.5-4.4,25.3-6.5,41.4-6.5c15.3,0,28.2,2.8,38.6,8.5
			c10.4,5.6,18.2,13.1,23.6,22.5c5.3,9.3,8,19.7,8,31.1c0,6.8-0.8,13-2.5,18.7c-1.7,5.7-3.9,10.8-6.7,15.1c-2.8,4.4-5.9,7.7-9.5,10
			c-3.5,2.3-7,3.5-10.5,3.5c-2.6,0-4.6-0.6-6-1.8c-1.4-1.2-2.3-2.9-2.7-5.2c-0.4-2.3-0.4-4.7-0.1-7.4l8.6-60.7h-22.1l-3.8,15.1
			c-1.7-3.5-3.9-6.6-6.8-9.5c-2.9-2.9-6.5-5.2-10.8-7c-4.4-1.8-9.9-2.7-16.5-2.7c-10.7,0-20.1,2.6-28.3,7.7
			c-8.2,5.1-14.6,12-19.3,20.7c-4.7,8.7-7,18.2-7,28.8c-0.2,9,1.6,16.9,5.3,23.5c3.7,6.6,8.8,11.7,15.3,15.1
			c6.5,3.5,14,5.2,22.2,5.2c6,0,11.9-1.3,17.7-3.8c5.8-2.6,10.9-5.7,15.5-9.5c2.6-2.1,4.8-4.3,6.7-6.5c0.2,0.9,0.5,1.8,0.9,2.7
			c2,5.3,5.3,9.4,9.7,12.3c4.4,2.9,9.7,4.4,15.9,4.4c8.3,0,15.8-1.8,22.7-5.5c6.8-3.7,12.8-8.7,17.8-15c5-6.3,9-13.6,11.7-21.9
			c2.8-8.3,4.2-17,4.2-26.2C267.5,139.1,265.5,128.6,261.5,118.9z M177.3,190.1c-3.1,3.3-6.6,5.9-10.6,7.7c-4,1.8-8.3,2.7-13,2.7
			c-5.4,0-10.2-1.2-14.3-3.7c-4.1-2.5-7.3-5.8-9.6-10c-2.3-4.2-3.4-8.9-3.4-14c0-6.3,1.5-12.1,4.5-17.4c3-5.3,7.1-9.5,12.2-12.8
			c5.1-3.2,10.8-4.9,16.9-4.9c5,0,9.4,0.9,13.2,2.7c3.8,1.8,7,4.3,9.5,7.3c2.5,3.1,4,6.7,4.6,10.9l-2.7,19.6
			C182.8,182.8,180.4,186.8,177.3,190.1z"/>
	</g>
</g>
</svg>
