<?xml version="1.0" encoding="UTF-8"?><svg id="Capa_2" xmlns="http://www.w3.org/2000/svg" viewBox="0 0 320.5 336.61"><defs><style>.cls-1{fill:#fff;}.cls-2{fill:#010101;}</style></defs><g id="Capa_1-2"><g><path class="cls-2" d="M296.89,126.81c10.71-17.74-10.79-43.46-30.68-30.69-.16,.1-.32,.21-.48,.31,1.13-1.07,2.21-2.18,3.34-3.25,18.38-17.4-5.42-48.66-27.15-35.19-13.61,8.44-27.05,17.17-40.39,26.02,11-10.67,22.12-21.23,33.47-31.53,19.41-17.61-5.32-46.83-27.15-35.19-5.21,2.78-10.28,5.8-15.41,8.73,3.27-16.53-14.93-32.1-33.29-23.65C109.74,25.12,64.38,55.42,23.87,91.7c-17.56,15.73,.35,39.63,19.18,37.49-13.54,16.23-26.7,32.77-39.18,49.86-12.64,17.31,8.29,37.18,25.63,32.74-3.92,5.19-7.88,10.35-11.72,15.59-6.52,8.89-2.36,22.82,5.77,28.9,9.24,6.9,20.86,5.85,29.42-1.75,2.42-2.15,4.89-4.24,7.33-6.37-4.03,4.72-8.19,9.33-12.19,14.09-7.78,9.26-9.08,22.61,0,31.68,7.26,7.26,19.26,8.48,27.82,3.09,1.15,5.54,4.24,10.77,8.45,13.92,8.65,6.46,18.07,5.57,26.47,.28-.66,16.37,17.62,33.26,33.25,21.42,9.19-6.97,18.39-13.94,27.59-20.91,6.17,11.71,22.27,18.2,35.35,6.33,20.42-18.52,42.16-35.09,65.39-49.92,11.89-7.59,12.51-20.78,7.2-30.42l22.56-24.96c7.45-8.25,8.89-20.45,1.75-29.42-1.34-1.69-3.07-3.18-4.97-4.5,4.95-4.58,9.91-9.15,14.86-13.73,15.72-14.52,1.02-38.97-16.94-38.32Z"/><path class="cls-1" d="M135.22,213.43H67.27l-17.47,48.54H14.76L86.09,71.04h30.09l71.22,190.94h-34.71l-17.47-48.54Zm-34.26-96.49c-6.42,19.9-12.06,36.56-17.02,49.98l-6.09,17.26h46.77l-6.09-17.14c-4.96-13.54-10.59-30.21-17.02-50.1h-.56Zm160.26,121.42c6.2,0,12.62-.72,19.27-2.04,6.76-1.32,13.52-3.12,20.4-5.63v26.85c-4.06,1.92-10.37,3.72-18.93,5.39-8.45,1.8-17.24,2.64-26.37,2.64s-17.92-1.32-26.26-3.84c-8.23-2.52-15.44-6.59-21.75-12.23-6.2-5.63-11.04-12.95-14.76-21.81-3.61-8.99-5.41-19.78-5.41-32.6s1.69-23.49,5.18-32.96c3.38-9.35,7.89-17.14,13.64-23.37,5.75-6.11,12.28-10.79,19.72-13.9,7.32-3.12,14.99-4.67,22.88-4.67s15.89,1.32,22.88,4.08c6.87,2.64,12.96,6.71,17.92,12.47,5.18,5.75,9.02,13.06,11.83,21.93,2.82,9.11,4.28,19.66,4.28,31.88-.11,4.79-.23,8.75-.45,12.11h-85.31c.56,6.47,1.8,11.87,4.06,16.54,2.25,4.43,5.18,8.15,8.79,11.03,3.61,2.76,7.89,4.91,12.62,6.11,4.96,1.32,10.14,2.04,15.78,2.04h0Zm-12.73-91.81c-4.06,0-7.66,.72-10.82,2.28-3.04,1.68-5.75,3.72-8.11,6.47-2.25,2.76-4.06,5.87-5.41,9.47s-2.14,7.43-2.7,11.63h51.16c0-4.2-.45-8.03-1.58-11.63-1.01-3.6-2.48-6.71-4.51-9.47-2.03-2.76-4.51-4.79-7.55-6.47-2.93-1.56-6.42-2.28-10.48-2.28h0Z"/></g></g></svg>