<?xml version="1.0" encoding="utf-8"?>
<!-- Generator: Adobe Illustrator 26.3.1, SVG Export Plug-In . SVG Version: 6.00 Build 0)  -->
<svg version="1.1" id="Capa_2_00000018952932998762385420000004838482719139344015_"
	 xmlns="http://www.w3.org/2000/svg" xmlns:xlink="http://www.w3.org/1999/xlink" x="0px" y="0px" viewBox="0 0 320.5 336.6"
	 style="enable-background:new 0 0 320.5 336.6;" xml:space="preserve">
<style type="text/css">
	.st0{fill:#010101;}
	.st1{fill:#FFFFFF;}
</style>
<g id="Capa_1-2">
	<g>
		<path class="st0" d="M296.9,126.8c10.7-17.7-10.8-43.5-30.7-30.7c-0.2,0.1-0.3,0.2-0.5,0.3c1.1-1.1,2.2-2.2,3.3-3.2
			c18.4-17.4-5.4-48.7-27.1-35.2c-13.6,8.4-27.1,17.2-40.4,26c11-10.7,22.1-21.2,33.5-31.5c19.4-17.6-5.3-46.8-27.1-35.2
			c-5.2,2.8-10.3,5.8-15.4,8.7c3.3-16.5-14.9-32.1-33.3-23.6c-49.4,22.8-94.8,53-135.3,89.3c-17.6,15.7,0.4,39.6,19.2,37.5
			C29.5,145.4,16.4,162,3.9,179.1c-12.6,17.3,8.3,37.2,25.6,32.7c-3.9,5.2-7.9,10.4-11.7,15.6c-6.5,8.9-2.4,22.8,5.8,28.9
			c9.2,6.9,20.9,5.9,29.4-1.8c2.4-2.1,4.9-4.2,7.3-6.4c-4,4.7-8.2,9.3-12.2,14.1c-7.8,9.3-9.1,22.6,0,31.7
			c7.3,7.3,19.3,8.5,27.8,3.1c1.2,5.5,4.2,10.8,8.4,13.9c8.7,6.5,18.1,5.6,26.5,0.3c-0.7,16.4,17.6,33.3,33.2,21.4
			c9.2-7,18.4-13.9,27.6-20.9c6.2,11.7,22.3,18.2,35.4,6.3c20.4-18.5,42.2-35.1,65.4-49.9c11.9-7.6,12.5-20.8,7.2-30.4l22.6-25
			c7.5-8.2,8.9-20.4,1.8-29.4c-1.3-1.7-3.1-3.2-5-4.5c5-4.6,9.9-9.1,14.9-13.7C329.5,150.6,314.8,126.1,296.9,126.8L296.9,126.8z"/>
		<g>
			<g>
				<path class="st1" d="M152.3,54.4c-38.5,4.1-67.5,41.1-64.2,79.7c4.4,50.6,50.9,88.3,66.8,99.8c3.2,2.3,7.4,2.2,10.5-0.2
					c16.5-12.9,67.3-56.7,67.3-107.3C232.8,83.8,195.9,49.8,152.3,54.4z M160.3,155.2c-15.9,0-28.8-12.9-28.8-28.8
					c0-15.9,12.9-28.8,28.8-28.8c15.9,0,28.8,12.9,28.8,28.8C189,142.3,176.2,155.2,160.3,155.2z"/>
				<path class="st1" d="M248.9,266.3l-11.9-53.8c-1.4-6.2-6.8-10.6-13.1-10.6h-3.8c-10.6,14.2-25,29.3-44.6,44.6
					c-4.4,3.4-9.9,5.3-15.4,5.3c-5.3,0-10.4-1.6-14.7-4.8c-11.1-8-30.3-23.7-46.4-45.2h-2.8c-6.3,0-11.8,4.4-13.2,10.6l-11.5,53.8
					c-1.8,8.4,4.6,16.3,13.2,16.3h151.1C244.4,282.6,250.8,274.7,248.9,266.3z"/>
			</g>
		</g>
	</g>
</g>
</svg>
